<?xml version="1.0" standalone="no"?>
<!DOCTYPE svg PUBLIC "-//W3C//DTD SVG 20010904//EN"
 "http://www.w3.org/TR/2001/REC-SVG-20010904/DTD/svg10.dtd">
<svg version="1.0" xmlns="http://www.w3.org/2000/svg"
 width="512.000000pt" height="512.000000pt" viewBox="0 0 512.000000 512.000000"
 preserveAspectRatio="xMidYMid meet">

<g transform="translate(0.000000,512.000000) scale(0.100000,-0.100000)"
fill="#0000a0" stroke="none">
<path d="M1020 4920 c0 -39 -41 -151 -74 -201 -37 -56 -80 -80 -136 -77 -36 2
-47 8 -59 28 -22 40 -7 127 34 194 18 31 30 56 27 56 -27 0 -84 -57 -109 -107
-24 -49 -28 -70 -28 -138 0 -69 4 -88 30 -140 34 -69 33 -68 640 -586 138
-117 252 -216 255 -219 3 -3 99 -86 214 -184 l209 -179 31 13 c17 7 58 22 91
34 33 11 61 22 63 23 6 2 -96 133 -857 1106 -134 172 -259 333 -278 360 -40
54 -53 59 -53 17z"/>
<path d="M1378 4643 c45 -63 37 -61 292 -65 218 -4 239 -5 294 -27 85 -34 168
-117 201 -201 25 -64 25 -65 25 -392 l0 -328 25 -38 c13 -20 33 -48 44 -62
l20 -25 1 387 c0 364 -1 391 -20 448 -23 68 -54 123 -63 113 -4 -3 -7 0 -7 7
0 7 -2 11 -5 8 -9 -8 6 -38 16 -32 5 3 9 1 9 -5 0 -5 -5 -13 -10 -16 -6 -4 -7
-11 -4 -17 4 -7 2 -8 -4 -4 -6 4 -8 14 -5 23 5 12 3 14 -7 8 -8 -5 -11 -3 -8
6 3 8 1 24 -3 37 -7 17 -6 21 3 16 17 -11 0 15 -36 53 -22 24 -37 31 -58 29
-15 -2 -25 0 -23 5 3 4 -4 11 -16 14 -11 4 -18 9 -16 12 3 2 19 -3 36 -12 17
-8 31 -14 31 -11 0 9 -76 49 -92 48 -10 0 -18 3 -18 8 0 19 -116 30 -343 32
-201 3 -237 1 -235 -11 2 -8 9 -16 17 -19 9 -3 11 0 6 9 -5 8 -4 11 0 6 5 -4
9 -17 10 -29 2 -19 -3 -17 -30 15 -37 43 -55 50 -27 10z m515 -20 c-7 -2 -19
-2 -25 0 -7 3 -2 5 12 5 14 0 19 -2 13 -5z m57 -44 c0 -10 -3 -10 -11 -2 -6 6
-19 9 -28 6 -14 -4 -14 -3 -1 7 12 10 11 11 -10 7 -14 -3 -34 -2 -45 3 -15 6
-11 8 18 8 21 0 41 2 44 6 7 7 33 -20 33 -35z m40 -19 c0 -5 -2 -10 -4 -10 -3
0 -8 5 -11 10 -3 6 -1 10 4 10 6 0 11 -4 11 -10z m144 -39 c10 -10 14 -21 9
-24 -4 -3 -16 6 -26 19 -21 28 -8 32 17 5z m-26 -35 c-7 -8 -17 -12 -22 -9 -4
3 -2 9 5 14 22 13 31 11 17 -5z m16 -19 c-3 -8 3 -20 12 -28 15 -12 16 -11 10
11 -6 22 -5 23 5 7 7 -12 7 -23 2 -28 -12 -12 -47 26 -38 40 9 15 15 14 9 -2z
m98 -126 c2 -17 1 -28 -4 -25 -4 3 -8 -7 -9 -23 l-1 -28 -8 30 c-4 17 -11 39
-14 50 -5 13 -2 12 8 -5 l15 -25 1 28 c0 36 7 35 12 -2z m28 -2 c0 -6 -4 -7
-10 -4 -5 3 -10 11 -10 16 0 6 5 7 10 4 6 -3 10 -11 10 -16z m-23 -166 c-3
-10 -5 -4 -5 12 0 17 2 24 5 18 2 -7 2 -21 0 -30z m6 -573 c3 -11 1 -18 -4
-14 -5 3 -9 12 -9 20 0 20 7 17 13 -6z"/>
<path d="M805 4268 c-14 -40 -22 -139 -14 -186 12 -80 44 -137 118 -211 85
-84 180 -149 526 -356 154 -93 310 -188 348 -212 37 -24 72 -43 78 -43 15 0
69 39 69 50 0 4 -46 48 -102 96 -57 49 -119 103 -138 120 -19 17 -188 163
-375 324 -187 161 -365 314 -396 341 -96 83 -109 92 -114 77z"/>
<path d="M3423 3731 c12 -32 26 -59 32 -60 5 -2 19 25 32 58 12 34 18 61 13
61 -6 0 -10 -6 -11 -12 0 -7 -8 -31 -18 -53 l-17 -39 -19 52 c-11 29 -22 52
-27 52 -4 0 3 -26 15 -59z"/>
<path d="M3712 3763 c-7 -7 -8 -13 -3 -13 5 0 11 -19 13 -42 2 -26 9 -43 18
-46 12 -4 13 -2 3 9 -15 15 -17 76 -4 81 5 2 4 8 -3 14 -8 8 -15 7 -24 -3z"/>
<path d="M4322 3763 c-7 -7 -8 -13 -3 -13 5 0 11 -19 13 -42 2 -26 9 -43 18
-46 12 -4 13 -2 3 9 -15 15 -17 76 -4 81 5 2 4 8 -3 14 -8 8 -15 7 -24 -3z"/>
<path d="M3540 3710 c0 -27 5 -50 10 -50 6 0 10 23 10 50 0 28 -4 50 -10 50
-5 0 -10 -22 -10 -50z"/>
<path d="M3607 3754 c-13 -13 -7 -71 8 -84 18 -15 47 -10 53 10 4 12 3 13 -10
2 -25 -21 -50 -4 -46 32 3 34 33 48 50 24 8 -10 9 -10 5 2 -4 16 -48 26 -60
14z"/>
<path d="M3790 3739 c-26 -47 26 -101 65 -69 18 15 20 61 3 78 -19 19 -56 14
-68 -9z m60 -9 c14 -26 -4 -63 -28 -58 -18 3 -28 39 -18 64 8 20 34 17 46 -6z"/>
<path d="M3912 3705 c1 -46 2 -47 5 -10 2 22 11 45 20 52 13 10 13 12 -6 10
-19 -1 -21 -7 -19 -52z"/>
<path d="M3988 3723 c6 -65 10 -70 11 -15 0 28 -3 52 -7 52 -4 0 -6 -17 -4
-37z"/>
<path d="M4056 3752 c-3 -5 6 -7 19 -4 18 3 25 0 25 -11 0 -8 -13 -17 -31 -21
-25 -5 -30 -10 -27 -28 2 -19 9 -23 41 -23 l38 -1 -3 46 c-3 40 -6 45 -30 48
-14 2 -29 -1 -32 -6z m44 -57 c0 -9 -7 -18 -16 -22 -18 -7 -39 11 -30 26 11
17 46 13 46 -4z"/>
<path d="M4216 3744 c-31 -30 -9 -84 34 -84 10 0 21 4 24 8 2 4 -7 8 -22 7
-17 0 -28 6 -30 18 -3 14 4 17 32 17 39 0 41 2 26 31 -13 23 -43 25 -64 3z
m52 -11 c2 -8 -6 -13 -22 -13 -25 0 -33 10 -19 24 10 10 36 3 41 -11z"/>
<path d="M806 3728 c-11 -42 -6 -110 10 -144 44 -93 166 -163 539 -312 138
-55 276 -112 307 -126 68 -31 70 -31 92 -7 16 18 9 23 -181 142 -178 110 -650
401 -729 450 l-32 19 -6 -22z"/>
<path d="M2930 3546 c-16 -20 -2 -38 41 -56 19 -8 29 -19 27 -29 -5 -23 -36
-26 -60 -4 -15 12 -20 14 -16 4 13 -41 88 -39 88 2 0 17 -10 28 -35 40 -40 19
-47 47 -12 47 13 0 29 -6 36 -12 11 -11 13 -10 9 2 -6 21 -62 25 -78 6z"/>
<path d="M4020 3495 l0 -65 34 0 c45 0 66 22 66 69 0 47 -14 61 -62 61 l-38 0
0 -65z m78 43 c29 -29 6 -98 -33 -98 -24 0 -25 3 -25 55 0 51 2 55 23 55 13 0
28 -5 35 -12z"/>
<path d="M3452 3535 c-7 -8 -8 -15 -3 -15 5 0 11 -19 13 -42 2 -23 8 -43 13
-45 6 -2 9 15 7 42 -3 30 0 45 8 45 7 0 6 5 -4 15 -18 18 -18 18 -34 0z"/>
<path d="M3062 3518 c-7 -7 -12 -24 -12 -38 0 -46 43 -67 70 -35 9 10 9 15 1
15 -6 0 -11 -4 -11 -10 0 -5 -9 -10 -19 -10 -22 0 -35 30 -26 60 6 20 45 29
45 10 0 -5 5 -10 11 -10 8 0 8 5 -1 15 -15 18 -42 19 -58 3z"/>
<path d="M3164 3486 c2 -63 16 -70 16 -8 0 29 -4 52 -9 52 -4 0 -8 -20 -7 -44z"/>
<path d="M3232 3518 c-7 -7 -12 -24 -12 -38 0 -33 17 -50 50 -49 20 1 21 2 5
6 -52 13 -59 43 -10 43 22 0 35 5 35 13 0 18 -21 37 -40 37 -9 0 -21 -5 -28
-12z m48 -13 c0 -10 -10 -15 -26 -15 -22 0 -25 2 -14 15 7 8 19 15 26 15 8 0
14 -7 14 -15z"/>
<path d="M3330 3479 c0 -60 18 -65 22 -6 2 34 7 42 23 42 16 0 21 -9 26 -45
l7 -45 -2 50 -1 50 -37 2 -38 1 0 -49z"/>
<path d="M3533 3480 c0 -30 2 -43 4 -27 2 15 2 39 0 55 -2 15 -4 2 -4 -28z"/>
<path d="M3597 3524 c-14 -14 -7 -26 8 -14 16 13 45 7 45 -10 0 -5 -9 -10 -19
-10 -26 0 -52 -27 -45 -45 4 -10 18 -14 40 -12 35 2 35 2 32 47 -3 40 -6 45
-28 48 -14 2 -29 0 -33 -4z m53 -58 c0 -15 -37 -32 -47 -22 -3 3 -3 12 0 21 8
19 47 20 47 1z"/>
<path d="M3762 3518 c-7 -7 -12 -24 -12 -38 0 -33 17 -50 50 -49 20 1 21 2 5
6 -51 13 -54 43 -4 43 17 0 29 5 29 13 0 18 -21 37 -40 37 -9 0 -21 -5 -28
-12z m48 -13 c0 -8 -9 -15 -20 -15 -20 0 -26 11 -13 23 12 13 33 7 33 -8z"/>
<path d="M3874 3508 c15 -26 15 -30 -1 -55 l-17 -28 22 19 c22 19 23 19 37 0
18 -23 20 -11 3 16 -10 16 -10 24 0 41 7 12 11 23 9 26 -3 3 -11 -5 -17 -17
l-11 -21 -21 23 -20 23 16 -27z"/>
<path d="M4172 3518 c-7 -7 -12 -24 -12 -38 0 -33 17 -50 50 -49 20 1 21 2 5
6 -52 13 -59 43 -10 43 22 0 35 5 35 13 0 18 -21 37 -40 37 -9 0 -21 -5 -28
-12z m48 -13 c0 -8 -9 -15 -20 -15 -20 0 -26 11 -13 23 12 13 33 7 33 -8z"/>
<path d="M4280 3511 c-22 -43 -5 -81 37 -81 38 0 56 55 27 84 -21 22 -51 20
-64 -3z m55 -31 c0 -41 -27 -53 -45 -21 -14 27 4 64 28 59 12 -2 17 -13 17
-38z"/>
<path d="M2236 3333 c-214 -44 -452 -260 -544 -493 -38 -97 -52 -174 -52 -280
0 -192 65 -364 197 -525 l31 -37 -33 83 c-95 237 -84 452 31 624 41 62 167
189 240 241 97 71 255 175 338 224 47 28 88 55 91 60 10 16 -63 78 -109 94
-62 22 -114 24 -190 9z"/>
<path d="M820 3304 c0 -111 109 -193 329 -248 100 -25 450 -96 474 -96 12 0
43 49 35 54 -2 2 -68 28 -148 59 -80 30 -266 103 -414 161 -148 58 -271 106
-273 106 -2 0 -3 -16 -3 -36z"/>
<path d="M3781 3244 c-170 -46 -305 -185 -340 -352 -7 -36 -11 -271 -11 -734
0 -750 1 -741 -63 -863 -43 -83 -154 -192 -242 -237 -122 -63 -312 -85 -410
-48 -15 6 -30 9 -32 7 -6 -7 136 -111 199 -146 153 -86 377 -127 591 -110 506
42 816 358 877 894 6 53 10 400 10 848 l0 757 -262 -1 c-197 0 -277 -4 -317
-15z m476 -806 c-3 -625 -6 -733 -20 -797 -75 -339 -236 -568 -482 -686 -127
-61 -217 -79 -400 -80 -126 0 -176 4 -235 19 l-75 19 50 12 c206 47 384 242
425 464 6 32 10 330 10 742 0 471 4 705 11 741 21 100 72 172 161 229 79 51
120 58 351 58 l208 1 -4 -722z"/>
<path d="M2816 3165 c99 -69 155 -175 169 -320 l7 -71 -45 -41 c-46 -43 -122
-73 -181 -73 -70 0 -158 35 -213 84 -21 18 -23 29 -23 112 0 51 3 99 6 108 4
11 29 -4 102 -64 54 -43 99 -77 101 -74 2 2 -14 24 -35 50 -21 25 -47 57 -57
70 -18 24 -18 24 6 24 16 0 28 8 35 25 11 23 10 25 -13 25 -13 0 -36 -5 -50
-12 -22 -10 -29 -8 -50 12 -32 30 -31 45 3 113 26 51 27 55 8 45 -12 -6 -35
-22 -52 -35 -17 -12 -37 -23 -43 -23 -7 0 -26 -10 -43 -21 -22 -16 -27 -24
-17 -30 11 -7 11 -14 0 -41 -59 -144 -70 -206 -78 -460 l-6 -197 27 -11 c47
-18 100 -12 124 13 34 36 42 72 42 183 0 57 2 104 5 104 3 0 18 -11 33 -25 36
-34 122 -65 180 -65 76 0 123 18 171 66 24 25 45 43 47 42 1 -2 -4 -51 -12
-108 -28 -194 -8 -281 74 -328 54 -30 66 -29 56 6 -5 15 -9 162 -9 327 -1 331
-4 350 -66 447 -40 63 -99 112 -175 149 -81 38 -89 37 -28 -6z"/>
<path d="M2780 3024 c0 -3 5 -14 10 -25 9 -15 21 -19 68 -19 l57 1 -28 24
c-20 18 -40 25 -68 25 -21 0 -39 -3 -39 -6z"/>
<path d="M914 2895 c34 -81 81 -118 186 -146 50 -14 361 -14 419 -1 30 7 36
14 52 59 l18 52 -32 6 c-18 2 -153 16 -302 30 -148 14 -289 28 -313 31 l-43 5
15 -36z"/>
<path d="M2064 2513 c0 -99 -6 -169 -22 -248 -38 -195 -44 -267 -32 -357 12
-89 52 -203 99 -282 35 -59 28 -76 68 174 23 141 28 208 28 345 0 191 -15 265
-80 400 -59 123 -60 123 -61 -32z"/>
<path d="M1258 2596 c-147 -23 -270 -44 -272 -47 -14 -13 41 -71 90 -95 85
-42 195 -37 382 18 l72 21 0 73 c0 41 -1 74 -2 73 -2 -1 -123 -20 -270 -43z"/>
<path d="M1315 2293 c-121 -53 -222 -98 -225 -100 -12 -11 67 -63 111 -73 90
-22 201 14 386 125 5 3 -41 145 -46 144 -4 0 -105 -44 -226 -96z"/>
<path d="M2760 2186 c-25 -7 -63 -21 -85 -30 l-40 -17 50 -21 c125 -53 309
-206 399 -332 96 -135 153 -288 164 -443 l8 -98 28 54 c40 77 58 176 59 326 1
105 -3 144 -21 206 -64 228 -239 371 -452 368 -36 0 -85 -6 -110 -13z"/>
<path d="M1428 2017 l-198 -141 32 -20 c24 -15 48 -20 101 -20 60 1 79 6 150
43 45 23 108 65 141 94 l58 52 -42 68 c-23 37 -43 67 -44 67 0 -1 -90 -65
-198 -143z"/>
<path d="M2276 2113 c-3 -4 -6 -53 -6 -109 0 -125 -14 -231 -44 -335 -22 -76
-21 -94 3 -65 6 7 44 28 83 47 l73 34 160 -1 c125 0 181 -5 257 -22 53 -12
109 -24 125 -27 15 -4 -6 9 -47 28 -132 60 -263 129 -325 170 -81 55 -188 159
-235 229 -21 31 -41 54 -44 51z"/>
<path d="M1733 1910 c-81 -96 -243 -303 -243 -310 0 -14 73 -19 119 -9 25 5
59 19 77 29 39 24 109 99 152 163 l33 47 -20 28 c-10 15 -34 41 -53 59 l-33
32 -32 -39z"/>
<path d="M1210 1757 c0 -77 12 -169 21 -155 4 7 7 -9 7 -37 -1 -28 6 -77 16
-110 9 -33 22 -78 27 -99 8 -30 13 -36 21 -25 7 10 8 9 4 -7 -8 -26 19 -102
42 -121 9 -8 11 -12 4 -8 -6 3 0 -18 15 -49 31 -61 52 -61 55 3 1 36 1 36 5 4
3 -19 -3 -42 -13 -57 -10 -16 -12 -26 -5 -26 6 0 11 -4 11 -9 0 -23 90 -157
148 -218 17 -19 32 -39 32 -45 0 -5 5 -6 10 -3 6 3 10 0 10 -7 0 -8 18 -31 40
-53 35 -34 41 -37 57 -25 16 12 16 12 5 0 -11 -13 -5 -22 35 -58 83 -74 267
-191 375 -237 56 -24 105 -40 106 -35 5 14 23 12 20 -1 -2 -7 12 -18 30 -25
19 -8 32 -10 32 -4 0 5 7 10 16 10 13 0 14 3 4 14 -6 8 -18 12 -27 9 -12 -5
-11 -1 3 15 10 12 23 22 29 22 5 0 4 -4 -4 -9 -26 -17 0 -34 43 -29 l42 5 -22
-22 c-16 -16 -31 -21 -51 -18 l-28 4 32 -15 c44 -20 169 -44 293 -56 106 -10
321 -3 300 10 -7 4 12 5 41 2 41 -4 50 -2 44 8 -6 10 -4 12 10 6 22 -8 167 23
160 34 -3 5 3 6 13 3 64 -16 550 239 527 277 -3 5 0 8 7 5 7 -3 31 12 53 31
22 20 60 54 84 75 45 40 47 49 8 27 -12 -6 -29 -13 -37 -13 -14 -2 -35 -7
-145 -37 -38 -11 -39 -12 -15 -19 l25 -7 -27 -1 c-16 -1 -28 4 -28 10 0 7 -8
9 -22 4 -31 -9 -61 -12 -208 -19 -69 -4 -141 -9 -160 -11 -23 -3 -29 -2 -16 3
13 6 -17 13 -90 21 -144 17 -138 16 -149 23 -6 3 -37 13 -70 22 -33 10 -73 24
-88 31 -26 13 -30 13 -49 -5 -24 -22 -18 -26 13 -10 14 8 26 7 46 -5 16 -9 19
-13 8 -9 -24 8 -43 8 -72 -1 -18 -6 -23 -3 -23 9 0 9 -7 19 -15 22 -8 4 -15
10 -15 15 0 6 8 5 19 -1 24 -12 41 -13 41 -1 0 11 -80 54 -88 46 -3 -3 1 -5 8
-5 15 0 -19 -29 -34 -30 -6 0 -1 7 10 15 18 14 18 14 -6 15 -22 1 -23 2 -5 9
18 7 18 9 -8 26 -27 17 -28 17 -52 -5 -14 -13 -28 -20 -32 -17 -3 4 -1 7 5 7
7 0 12 5 12 11 0 7 8 18 18 26 16 14 16 14 -1 9 -10 -3 -15 -2 -12 4 6 10 -52
56 -67 52 -5 -1 -7 1 -4 6 2 4 -12 26 -31 48 -20 21 -55 67 -78 101 -23 34
-46 59 -50 55 -5 -4 -5 -2 -2 4 6 10 -46 130 -62 144 -3 3 -6 10 -6 15 -1 26
-18 75 -27 82 -8 4 -9 0 -4 -13 4 -10 9 -37 12 -59 2 -22 8 -41 14 -43 6 -2 7
-8 4 -13 -8 -13 16 -70 26 -64 5 3 6 -3 3 -13 -2 -10 9 -45 26 -78 17 -32 31
-53 31 -46 0 7 4 11 9 8 5 -4 11 -2 13 4 2 6 9 0 17 -12 13 -21 13 -22 -1 -10
-13 10 -17 10 -22 -4 -7 -19 2 -37 15 -29 5 3 7 0 4 -7 -6 -16 98 -144 114
-140 7 1 10 -1 7 -6 -7 -11 68 -85 77 -76 4 4 7 2 7 -5 0 -8 6 -11 16 -7 8 3
12 2 9 -4 -10 -16 87 -70 115 -64 20 3 21 3 6 -4 -14 -6 -16 -11 -8 -16 7 -4
12 -4 12 -1 0 4 7 0 15 -9 9 -8 21 -13 29 -10 7 3 19 -2 26 -10 13 -17 159
-67 188 -65 11 1 8 4 -8 9 -22 7 -20 8 14 9 31 1 36 -2 27 -13 -9 -11 -3 -14
34 -19 24 -4 58 -4 74 -1 16 4 31 1 35 -5 8 -13 157 -14 251 -2 46 6 65 4 83
-7 12 -8 22 -11 22 -8 0 4 10 1 22 -5 21 -11 21 -12 3 -25 -10 -8 -24 -14 -29
-14 -6 1 0 7 14 15 l25 14 -26 1 c-14 0 -30 5 -36 11 -13 13 -85 -19 -76 -34
3 -6 1 -7 -4 -4 -6 4 -39 -8 -74 -25 -35 -17 -71 -33 -79 -34 -8 -2 -23 -7
-35 -13 -28 -14 -153 -51 -195 -57 -49 -8 -74 -23 -37 -24 15 0 27 -5 27 -11
0 -13 -53 -2 -58 12 -2 5 -13 9 -23 9 -11 0 -18 -4 -15 -9 8 -12 -315 -13
-414 0 -47 6 -95 11 -107 11 -13 0 -23 4 -23 9 0 5 -8 9 -18 9 -11 0 -44 9
-74 19 -30 10 -68 17 -84 14 -23 -4 -26 -2 -14 7 12 9 10 10 -10 4 -14 -3 -22
-3 -18 1 10 11 -71 47 -85 38 -5 -3 -7 -2 -4 4 4 6 -13 19 -36 29 -23 10 -59
29 -79 41 -21 13 -38 20 -38 16 0 -3 -10 2 -22 13 -13 11 -49 39 -81 63 -43
31 -56 37 -47 22 10 -20 10 -21 -10 -9 -11 7 -18 18 -16 24 4 12 -24 43 -54
59 -10 6 -8 1 4 -13 11 -12 14 -22 9 -22 -13 0 -27 29 -24 48 2 9 -4 12 -18 7
-10 -3 -22 -1 -26 4 -4 7 1 8 12 4 10 -4 -11 25 -47 65 -35 40 -66 72 -68 72
-2 0 -1 -9 3 -19 4 -15 1 -19 -12 -17 -9 2 -19 9 -21 17 -3 11 -2 12 6 1 7
-11 11 -9 15 8 4 16 -7 40 -40 86 -25 35 -50 61 -54 58 -5 -3 -6 3 -2 12 4 12
3 15 -5 10 -7 -4 -12 -13 -12 -20 0 -8 -9 -16 -20 -19 -11 -3 -20 -1 -20 4 0
5 7 9 15 9 20 0 19 19 -5 57 -14 24 -15 31 -4 26 8 -3 17 -16 20 -29 3 -13 10
-22 15 -19 8 6 -48 118 -63 123 -4 2 -6 8 -2 13 3 5 -2 21 -10 36 -19 34 -39
83 -42 103 -1 8 -7 29 -14 45 -14 36 -15 39 -40 180 -11 61 -21 128 -22 150
-3 36 -6 40 -30 40 -15 1 -31 5 -35 10 -4 4 -2 5 5 1 6 -4 12 -5 12 -2 0 3 -9
10 -20 16 -19 10 -20 8 -20 -33z m17 -29 c-3 -7 -5 -2 -5 12 0 14 2 19 5 13 2
-7 2 -19 0 -25z m20 -65 c-3 -10 -5 -2 -5 17 0 19 2 27 5 18 2 -10 2 -26 0
-35z m19 -60 c-11 -11 -17 4 -9 23 7 18 8 18 11 1 2 -10 1 -21 -2 -24z m31
-25 c-3 -8 -6 -5 -6 6 -1 11 2 17 5 13 3 -3 4 -12 1 -19z m20 -95 c-3 -10 -5
-4 -5 12 0 17 2 24 5 18 2 -7 2 -21 0 -30z m10 -75 c-3 -7 -5 -2 -5 12 0 14 2
19 5 13 2 -7 2 -19 0 -25z m-17 -19 c0 -6 -4 -7 -10 -4 -5 3 -10 11 -10 16 0
6 5 7 10 4 6 -3 10 -11 10 -16z m25 -28 c-8 -14 -25 -14 -25 0 0 5 5 7 10 4 6
-3 10 -1 10 6 0 7 3 10 6 6 3 -3 3 -10 -1 -16z m23 -91 c2 -31 -1 -38 -12 -34
-8 3 -16 15 -20 27 -5 22 -5 22 11 2 15 -19 15 -19 9 6 -4 20 -1 39 8 39 1 0
2 -18 4 -40z m1075 -161 c5 -3 2 -9 -7 -12 -12 -5 -16 0 -16 15 0 12 3 17 8
12 4 -5 11 -12 15 -15z m79 -109 c10 -8 18 -19 18 -25 0 -5 -5 -3 -11 5 -8 12
-12 12 -16 2 -4 -10 -8 -9 -19 5 -26 35 -9 43 28 13z m-939 -59 c16 -33 16
-34 -1 -18 -23 21 -29 21 -35 0 -4 -14 -5 -12 -6 5 0 12 4 22 9 22 6 0 10 5
10 11 0 5 -4 8 -9 4 -13 -8 -22 10 -15 30 6 14 8 14 19 -2 6 -10 19 -33 28
-52z m-70 28 c4 -16 3 -18 -9 -8 -7 6 -11 15 -8 20 8 13 11 11 17 -12z m1081
-69 c5 0 3 7 -4 15 -18 21 4 19 23 -3 15 -17 15 -18 -11 -16 -38 2 -36 1 -62
37 l-23 32 35 -32 c18 -18 38 -33 42 -33z m-1005 -34 c17 -18 19 -26 10 -31
-7 -5 -10 -4 -6 2 7 11 -16 37 -25 28 -2 -3 -5 2 -5 10 0 19 -1 19 26 -9z
m1108 -22 c-3 -3 -12 -4 -19 -1 -8 3 -5 6 6 6 11 1 17 -2 13 -5z m3 -37 c0 -1
-11 -2 -24 -2 -14 0 -22 5 -19 12 4 9 10 10 24 2 10 -5 19 -11 19 -12z m-1024
-13 c25 -26 31 -40 14 -29 -5 3 -10 1 -10 -5 0 -7 7 -9 16 -6 8 3 22 -1 30 -9
9 -8 13 -15 11 -15 -3 0 -14 -3 -24 -6 -15 -5 -16 -4 -3 6 13 9 12 11 -5 8
-22 -4 -58 34 -60 64 -2 24 3 23 31 -8z m25 9 c13 -16 12 -17 -3 -4 -17 13
-22 21 -14 21 2 0 10 -8 17 -17z m1073 -52 c4 -5 -3 -7 -14 -4 -23 6 -26 13
-6 13 8 0 17 -4 20 -9z m1094 -30 c-7 -11 -16 -17 -21 -14 -4 3 0 11 10 19 24
18 25 17 11 -5z m-2098 -5 c0 -2 -8 -10 -17 -17 -16 -13 -17 -12 -4 4 13 16
21 21 21 13z m1187 -18 c-7 -4 -25 -8 -42 -8 l-30 -1 25 -11 c15 -6 20 -12 13
-15 -7 -3 -24 4 -38 15 -14 11 -21 22 -15 24 21 7 98 3 87 -4z m840 -7 c-10
-12 -9 -12 10 -2 19 10 22 9 17 -3 -4 -9 -17 -14 -34 -13 -15 1 -26 6 -23 11
3 4 0 12 -7 16 -6 4 1 7 18 6 25 -1 28 -4 19 -15z m-740 -19 c-33 -4 -57 3
-57 16 0 5 19 4 42 -2 39 -10 40 -11 15 -14z m-1282 8 c-3 -5 -11 -10 -16 -10
-6 0 -7 5 -4 10 3 6 11 10 16 10 6 0 7 -4 4 -10z m1944 -16 c10 -9 -55 -3 -69
6 -10 6 -2 7 25 3 22 -3 42 -7 44 -9z m-101 -1 c-10 -2 -26 -2 -35 0 -10 3 -2
5 17 5 19 0 27 -2 18 -5z m-1811 -9 c-3 -3 -12 -4 -19 -1 -8 3 -5 6 6 6 11 1
17 -2 13 -5z m1186 -1 c3 -5 -6 -9 -20 -10 -19 -1 -22 1 -12 8 17 11 26 11 32
2z m214 1 c-3 -3 -12 -4 -19 -1 -8 3 -5 6 6 6 11 1 17 -2 13 -5z m433 -23 c0
-5 -16 -9 -35 -8 -21 1 -30 4 -22 9 17 11 57 10 57 -1z m-107 -8 c-7 -2 -19
-2 -25 0 -7 3 -2 5 12 5 14 0 19 -2 13 -5z m195 -1 c9 -6 6 -14 -12 -29 -21
-19 -27 -20 -43 -8 -10 7 -16 15 -13 17 43 28 51 30 68 20z m-1883 -12 c3 -6
-1 -7 -9 -4 -18 7 -21 14 -7 14 6 0 13 -4 16 -10z m1352 4 c-3 -3 -12 -4 -19
-1 -8 3 -5 6 6 6 11 1 17 -2 13 -5z m268 -4 c-19 -8 -18 -9 4 -9 13 -1 22 -4
18 -7 -3 -3 -21 -3 -39 1 -29 7 -30 9 -13 16 28 11 56 10 30 -1z m-1581 -16
c9 -8 16 -20 16 -25 0 -5 -9 0 -20 11 -19 19 -25 30 -16 30 3 0 12 -7 20 -16z
m67 6 c20 -11 26 -30 8 -30 -5 0 -7 5 -3 12 5 8 2 9 -10 5 -9 -4 -14 -3 -11 2
3 5 -3 12 -12 14 -10 3 -12 5 -5 6 7 0 22 -4 33 -9z m1606 4 c-3 -3 -12 -4
-19 -1 -8 3 -5 6 6 6 11 1 17 -2 13 -5z m53 -26 c0 -6 -6 -5 -15 2 -8 7 -15
14 -15 16 0 2 7 1 15 -2 8 -4 15 -11 15 -16z m-1590 -24 c22 -13 23 -14 3 -9
-12 3 -31 1 -42 -4 -20 -11 -80 3 -68 15 3 3 14 1 25 -5 22 -12 55 -4 46 10
-8 13 8 10 36 -7z m-10 -34 c-20 -13 -33 -13 -25 0 3 6 14 10 23 10 15 0 15
-2 2 -10z m100 -5 c0 -2 -13 -11 -30 -20 -16 -9 -30 -12 -30 -7 0 4 12 13 28
19 15 6 28 11 30 12 1 1 2 -1 2 -4z m1388 -25 c12 0 13 -3 5 -11 -8 -8 -17 -7
-35 6 -16 12 -18 16 -5 11 10 -3 26 -6 35 -6z m55 3 c-7 -2 -19 -2 -25 0 -7 3
-2 5 12 5 14 0 19 -2 13 -5z m-1457 -22 c-8 -12 43 -33 64 -26 10 3 21 1 25
-5 3 -5 23 -11 43 -11 l37 -1 -30 -8 c-45 -11 -77 -11 -70 0 3 6 -1 10 -10 10
-22 0 -75 28 -75 40 0 6 5 10 11 10 5 0 8 -4 5 -9z m1361 -17 c0 -18 -40 -36
-71 -33 -12 2 -30 0 -41 -4 -11 -4 -33 -3 -50 2 -16 5 -22 10 -13 10 9 1 25 4
35 7 15 5 16 4 3 -6 -12 -10 -10 -10 10 -5 14 4 36 6 48 6 13 -1 31 3 40 9 14
8 11 10 -13 11 -27 2 -26 3 10 9 22 4 40 8 41 9 0 0 1 -6 1 -15z m-1160 -40
c-3 -3 -12 -4 -19 -1 -8 3 -5 6 6 6 11 1 17 -2 13 -5z m-47 -8 c0 -3 -4 -8
-10 -11 -5 -3 -10 -1 -10 4 0 6 5 11 10 11 6 0 10 -2 10 -4z m1000 -32 c0 -2
-12 -4 -26 -4 -14 0 -23 4 -20 9 6 8 46 4 46 -5z m77 10 c-3 -3 -12 -4 -19 -1
-8 3 -5 6 6 6 11 1 17 -2 13 -5z m-662 -34 c13 -6 15 -9 5 -9 -8 0 -22 4 -30
9 -18 12 -2 12 25 0z m373 -6 c29 5 32 4 12 -3 -38 -14 -54 -13 -76 5 -18 14
-18 15 4 4 12 -6 39 -9 60 -6z m-521 0 c-3 -3 -12 -4 -19 -1 -8 3 -5 6 6 6 11
1 17 -2 13 -5z m90 0 c-3 -3 -12 -4 -19 -1 -8 3 -5 6 6 6 11 1 17 -2 13 -5z
m281 -1 c-10 -2 -26 -2 -35 0 -10 3 -2 5 17 5 19 0 27 -2 18 -5z m239 -9 c-3
-3 -12 -4 -19 -1 -8 3 -5 6 6 6 11 1 17 -2 13 -5z m-590 -20 c-3 -3 -12 -4
-19 -1 -8 3 -5 6 6 6 11 1 17 -2 13 -5z m104 -1 c-11 -5 -11 -7 0 -15 11 -7 9
-8 -4 -4 -10 3 -35 7 -55 8 -37 1 -36 1 8 8 58 9 68 10 51 3z m276 -9 c-3 -3
-12 -4 -19 -1 -8 3 -5 6 6 6 11 1 17 -2 13 -5z m-190 -10 c-3 -3 -12 -4 -19
-1 -8 3 -5 6 6 6 11 1 17 -2 13 -5z m106 -1 c-7 -2 -19 -2 -25 0 -7 3 -2 5 12
5 14 0 19 -2 13 -5z"/>
<path d="M1650 780 c0 -5 5 -10 11 -10 5 0 7 5 4 10 -3 6 -8 10 -11 10 -2 0
-4 -4 -4 -10z"/>
<path d="M3687 613 c-12 -12 -7 -22 8 -17 8 4 15 10 15 15 0 11 -14 12 -23 2z"/>
</g>
</svg>
