<?xml version="1.0" encoding="UTF-8"?>
<!DOCTYPE svg PUBLIC "-//W3C//DTD SVG 1.1//EN" "http://www.w3.org/Graphics/SVG/1.1/DTD/svg11.dtd">
<!-- Creator: CorelDRAW 2020 (64 Bit) -->
<svg xmlns="http://www.w3.org/2000/svg" xml:space="preserve" width="300px" height="109px" version="1.1" style="shape-rendering:geometricPrecision; text-rendering:geometricPrecision; image-rendering:optimizeQuality; fill-rule:evenodd; clip-rule:evenodd"
viewBox="0 0 300000 108930"
 xmlns:xlink="http://www.w3.org/1999/xlink"
 xmlns:xodm="http://www.corel.com/coreldraw/odm/2003">
 <defs>
  <style type="text/css">
   <![CDATA[
    .fil0 {fill:#005B8C}
   ]]>
  </style>
 </defs>
 <g id="Camada_x0020_1">
  <metadata id="CorelCorpID_0Corel-Layer"/>
  <g id="_2724015366240">
   <polygon class="fil0" points="4010,76030 15480,0 69070,0 66050,19010 36310,19010 34450,30800 59670,30800 56930,48590 31700,48590 27800,76040 "/>
   <polygon class="fil0" points="65420,76030 76930,0 101330,0 89700,76030 "/>
   <polygon class="fil0" points="106700,19010 109900,0 176380,0 173200,19010 152460,18950 144220,76030 120050,76030 128490,19010 "/>
   <path class="fil0" d="M227570 52210l-42120 0c-160,3370 370,6350 1540,8010 1660,2360 4120,3540 7380,3540 2070,0 4120,-500 6130,-1540 1930,-990 4390,-2930 4860,-5190 7120,0 14260,0 21380,0 -1360,6230 -9430,12740 -14950,15450 -4850,2370 -11460,3560 -19830,3560 -7260,0 -12810,-1020 -16660,-3050 -3830,-2040 -6770,-5280 -8800,-9720 -2020,-4440 -2570,-9640 -1610,-15640 1360,-8520 5200,-15430 11520,-20690 6340,-5280 14340,-7930 24010,-7930 7840,0 13850,1190 18010,3560 4170,2350 7090,5790 8740,10260 2280,6160 1780,12550 400,19380zm-19770 -9510c230,-4050 -410,-6940 -1890,-8680 -1500,-1750 -3690,-2630 -6580,-2630 -3350,0 -6220,1330 -8650,3960 -1530,1650 -2730,4090 -3580,7350l20700 0z"/>
   <path class="fil0" d="M276100 57030l21060 0c-1440,3390 -3890,6750 -6540,9430 -2990,3040 -6570,5380 -10750,7060 -4160,1670 -9250,2510 -15270,2510 -5810,0 -10570,-540 -14250,-1610 -3700,-1090 -6750,-2820 -9150,-5240 -2410,-2420 -4140,-5240 -5190,-8500 -1070,-3240 -1180,-7550 -320,-12920 890,-5610 2590,-10290 5110,-14020 1850,-2730 4160,-5180 6950,-7360 2790,-2170 5550,-3800 8310,-4850 4350,-1680 9730,-2520 16120,-2520 8940,0 15500,1590 19690,4780 6090,4630 7400,11400 8130,18900 -6870,0 -13740,0 -20610,0 -40,-2940 -260,-5700 -2580,-7580 -1440,-1190 -3540,-1770 -6300,-1770 -3470,0 -6480,1240 -9020,3710 -2540,2490 -4210,6240 -5010,11270 -720,4480 -190,7880 1570,10210 1760,2330 4290,3490 7600,3490 2740,0 5160,-700 7270,-2110 920,-610 2730,-1800 3180,-2880z"/>
   <path class="fil0" d="M111740 97070l2160 -410c-50,1110 170,1940 640,2480 470,550 1170,820 2080,820 920,0 1670,-240 2240,-710 580,-470 920,-1070 1030,-1800 90,-630 -50,-1120 -430,-1470 -250,-230 -930,-530 -2010,-890 -1560,-530 -2600,-980 -3090,-1350 -500,-360 -860,-860 -1070,-1480 -210,-610 -260,-1320 -140,-2100 210,-1360 790,-2460 1750,-3310 960,-840 2180,-1310 3650,-1310 930,0 1710,220 2370,570 650,350 1110,820 1400,1400 280,590 410,1430 390,2530l-2120 360c70,-1740 -700,-2600 -2320,-2600 -920,0 -1630,190 -2140,570 -500,390 -800,880 -890,1470 -90,590 50,1050 430,1390 230,200 940,520 2150,960 1660,590 2720,1050 3190,1400 460,340 790,810 990,1400 190,590 230,1300 110,2110 -230,1520 -880,2750 -1950,3680 -1060,940 -2390,1400 -3990,1400 -2990,0 -4470,-1700 -4430,-5110z"/>
   <path class="fil0" d="M99390 92360l6970 0c120,-1380 -10,-2400 -370,-3080 -540,-990 -1330,-1480 -2380,-1480 -950,0 -1820,410 -2610,1230 -800,830 -1330,1930 -1610,3330zm6300 4350l2130 340c-620,1700 -1480,2980 -2560,3840 -1080,870 -2330,1290 -3730,1290 -1780,0 -3100,-690 -3990,-2090 -880,-1410 -1120,-3430 -720,-6070 420,-2740 1290,-4830 2610,-6270 1330,-1450 2840,-2210 4530,-2210 1620,0 2860,750 3730,2170 860,1420 1090,3460 680,6140l-120 720 -9330 0c-180,1790 10,3130 580,4040 570,910 1360,1360 2380,1360 1580,0 2860,-1080 3810,-3260z"/>
   <path class="fil0" d="M60510 93850c-770,410 -1880,740 -3340,1020 -850,160 -1450,350 -1810,550 -360,210 -650,490 -890,870 -230,370 -380,800 -450,1290 -100,760 20,1360 370,1820 350,450 900,680 1630,680 700,0 1370,-210 2000,-620 630,-400 1130,-950 1510,-1630 380,-680 660,-1680 850,-2990l130 -990zm-680 6020c-770,770 -1530,1340 -2290,1730 -770,390 -1530,580 -2290,580 -1210,0 -2110,-400 -2720,-1220 -600,-820 -800,-1920 -610,-3300 130,-920 410,-1730 850,-2440 440,-710 980,-1260 1620,-1660 640,-400 1570,-700 2780,-890 1630,-260 2850,-560 3640,-930l110 -680c160,-1090 90,-1850 -190,-2290 -400,-640 -1100,-960 -2120,-960 -910,0 -1620,210 -2130,640 -520,420 -960,1220 -1340,2390l-1870 -370c510,-1700 1240,-2940 2190,-3720 940,-770 2200,-1210 3760,-1210 1220,0 2130,300 2750,810 620,520 970,1150 1040,1910 80,760 10,1870 -190,3320l-510 3590c-350,2510 -530,4100 -540,4750 -10,650 120,1640 280,2260l-2060 0c-130,-550 -210,-1550 -160,-2310z"/>
   <path class="fil0" d="M41160 102180l-2450 -16640 2350 0 1290 9980c150,1130 260,2250 330,3350 330,-870 750,-1930 1300,-3160l4460 -10170 2280 0 -7490 16640 -2070 0z"/>
   <path class="fil0" d="M24810 93880c-310,2060 -190,3590 380,4590 560,1000 1380,1500 2440,1500 990,0 1930,-500 2790,-1520 870,-1010 1460,-2530 1770,-4570 310,-2040 180,-3560 -380,-4560 -570,-1010 -1380,-1510 -2450,-1510 -1000,0 -1940,510 -2800,1520 -860,1000 -1440,2520 -1750,4550zm-2170 0c420,-2740 1290,-4800 2600,-6200 1320,-1390 2830,-2140 4520,-2140 1660,0 2950,750 3860,2140 900,1400 1160,3410 760,6040 -440,2850 -1310,4980 -2620,6370 -1320,1400 -2820,2090 -4520,2090 -1680,0 -2970,-690 -3870,-2090 -900,-1410 -1150,-3480 -730,-6210z"/>
   <path class="fil0" d="M83580 93880c-320,2060 -190,3590 370,4590 570,1000 1380,1500 2440,1500 1000,0 1930,-500 2800,-1520 870,-1010 1450,-2530 1760,-4570 310,-2040 180,-3560 -380,-4560 -570,-1010 -1380,-1510 -2440,-1510 -1010,0 -1940,510 -2800,1520 -860,1000 -1450,2520 -1750,4550zm-2180 0c420,-2740 1290,-4800 2610,-6200 1320,-1390 2810,-2140 4500,-2140 1660,0 2960,740 3870,2140 910,1400 1160,3410 760,6040 -430,2850 -1300,4980 -2620,6370 -1310,1400 -2820,2090 -4520,2090 -1670,0 -2960,-690 -3860,-2090 -910,-1410 -1150,-3480 -740,-6210z"/>
   <path class="fil0" d="M6740 102180l2460 -16230 1960 0 -360 2310c610,-900 1290,-1570 2030,-2010 750,-440 1570,-710 2450,-710 680,0 1290,180 1830,470 540,280 950,640 1240,1100 290,450 470,1040 530,1760 70,730 -10,1840 -240,3330l-1510 9980 -2180 0 1500 -9870c190,-1190 220,-2060 110,-2620 -120,-540 -360,-970 -730,-1270 -370,-300 -820,-450 -1370,-450 -1040,0 -1920,400 -2660,1210 -740,800 -1260,2180 -1560,4140l-1350 8860 -2150 0z"/>
   <polygon class="fil0" points="0,102180 3250,80810 5470,80810 2220,102180 "/>
   <path class="fil0" d="M69940 104160l780 -2000c-1260,-200 -2240,-880 -2950,-2050 -850,-1400 -1060,-3470 -640,-6230 420,-2760 1270,-4830 2550,-6220 1280,-1380 2760,-2120 4430,-2120 1300,0 2330,460 3080,1300 770,840 1140,2100 1130,3780l-2110 410c-40,-1080 -270,-1890 -690,-2420 -410,-540 -970,-810 -1670,-810 -1050,0 -1980,480 -2820,1450 -830,960 -1400,2490 -1720,4590 -330,2170 -240,3740 270,4710 500,970 1280,1450 2300,1450 810,0 1540,-320 2210,-970 670,-640 1180,-1640 1540,-3000l2030 350c-520,1890 -1340,3340 -2460,4340 -900,800 -1870,1280 -2910,1440l-390 960c640,100 1100,350 1380,760 290,410 390,900 300,1490 -110,770 -510,1430 -1200,1980 -680,540 -1540,810 -2570,810 -680,0 -1260,-50 -1730,-170l390 -1760c510,40 890,60 1160,60 640,0 1130,-100 1450,-310 330,-210 510,-480 560,-810 50,-310 -40,-550 -280,-730 -240,-170 -710,-260 -1420,-280z"/>
   <path class="fil0" d="M84850 84020c150,-1060 510,-1890 1060,-2500 550,-600 1160,-890 1820,-890 500,0 1120,260 1860,800 410,300 760,450 1040,450 250,0 460,-90 610,-260 160,-180 300,-520 440,-1040l1520 0c-200,1150 -560,1990 -1080,2550 -510,560 -1100,840 -1740,840 -480,0 -1080,-280 -1800,-830 -470,-350 -820,-540 -1060,-540 -260,0 -490,120 -690,350 -210,240 -350,590 -420,1070l-1560 0z"/>
   <path class="fil0" d="M230920 93830c-320,2150 -220,3710 310,4690 530,990 1290,1480 2270,1480 980,0 1890,-480 2730,-1450 830,-960 1410,-2500 1730,-4600 310,-2050 190,-3570 -370,-4570 -550,-1000 -1340,-1500 -2360,-1500 -900,0 -1770,500 -2610,1500 -830,1000 -1400,2480 -1700,4450zm-3310 9820l2070 400c-40,870 160,1520 590,1950 430,420 1080,630 1950,630 960,0 1760,-230 2390,-710 640,-480 1140,-1190 1490,-2130 210,-580 460,-1790 740,-3630 -580,710 -1190,1230 -1830,1590 -650,360 -1340,430 -2050,430 -1540,0 -2710,-560 -3520,-1920 -920,-1560 -1190,-3640 -790,-6260 270,-1750 760,-3290 1470,-4600 710,-1310 1530,-2280 2450,-2890 930,-620 1910,-970 2940,-970 760,0 1420,240 1980,630 570,390 1040,970 1400,1760l300 -1970 2010 0 -2150 14120c-380,2510 -850,4300 -1410,5380 -550,1070 -1330,1910 -2310,2530 -990,630 -2120,940 -3380,940 -1660,0 -2870,-470 -3630,-1410 -750,-930 -990,-2220 -710,-3870z"/>
   <polygon class="fil0" points="243400,102180 245940,85540 248140,85540 245610,102180 "/>
   <polygon class="fil0" points="246200,83900 246670,80820 248760,80820 248300,83900 "/>
   <polygon class="fil0" points="219600,84980 221790,80820 224540,80820 221340,84980 "/>
   <path class="fil0" d="M175830 102180l2460 -16230 1960 0 -350 2310c600,-900 1280,-1570 2020,-2010 750,-440 1570,-710 2450,-710 680,0 1290,180 1830,470 540,280 950,640 1240,1100 290,450 470,1040 540,1760 60,720 -20,1840 -250,3330l-1510 9980 -2180 0 1500 -9870c190,-1190 220,-2060 110,-2620 -120,-540 -360,-970 -730,-1270 -370,-300 -820,-450 -1370,-450 -1040,0 -1920,400 -2660,1210 -740,800 -1260,2180 -1560,4140l-1350 8860 -2150 0z"/>
   <path class="fil0" d="M171010 95940l2010 350c-520,1880 -1340,3310 -2440,4300 -1110,990 -2330,1590 -3670,1590 -1620,0 -2860,-800 -3700,-2190 -840,-1390 -1050,-3450 -640,-6180 420,-2740 1260,-4790 2530,-6170 1270,-1370 2740,-2100 4400,-2100 1290,0 2300,460 3060,1290 750,840 1120,2090 1120,3750l-2100 400c-40,-1070 -260,-1870 -680,-2400 -410,-530 -960,-800 -1660,-800 -1040,0 -1970,480 -2790,1440 -830,950 -1400,2470 -1710,4550 -330,2150 -240,3710 270,4670 500,960 1260,1440 2280,1440 800,0 1530,-320 2190,-960 660,-640 1170,-1630 1530,-2980z"/>
   <path class="fil0" d="M258980 95940l2010 350c-520,1880 -1340,3310 -2440,4300 -1110,990 -2330,1590 -3670,1590 -1630,0 -2860,-800 -3700,-2190 -840,-1390 -1050,-3450 -640,-6180 420,-2740 1260,-4790 2530,-6170 1270,-1370 2740,-2100 4400,-2100 1280,0 2300,460 3060,1290 750,840 1120,2090 1110,3750l-2100 400c-30,-1070 -260,-1870 -670,-2400 -410,-530 -970,-800 -1660,-800 -1040,0 -1970,480 -2800,1440 -820,950 -1390,2470 -1710,4550 -320,2150 -230,3710 270,4670 500,960 1270,1440 2290,1440 790,0 1520,-320 2190,-960 660,-640 1170,-1630 1530,-2980z"/>
   <polygon class="fil0" points="137910,102180 140780,83340 135240,83340 135620,80820 148950,80820 148570,83340 143000,83340 140140,102180 "/>
   <path class="fil0" d="M279350 97070l2160 -410c-50,1110 160,1940 640,2480 470,550 1160,820 2080,820 920,0 1670,-240 2240,-710 570,-470 910,-1070 1020,-1800 100,-630 -40,-1120 -420,-1470 -260,-230 -930,-530 -2010,-890 -1570,-530 -2600,-980 -3100,-1350 -490,-360 -850,-860 -1060,-1480 -210,-610 -260,-1320 -140,-2100 210,-1360 790,-2460 1750,-3310 960,-840 2180,-1310 3650,-1310 930,0 1710,220 2360,570 650,350 1120,820 1410,1400 280,590 410,1430 380,2530l-2120 360c80,-1740 -700,-2600 -2310,-2600 -920,0 -1630,190 -2140,570 -500,390 -800,880 -900,1470 -90,590 60,1050 430,1390 230,200 950,520 2160,960 1660,590 2720,1050 3180,1400 470,340 800,810 1000,1400 190,590 230,1300 100,2110 -230,1520 -870,2750 -1940,3680 -1060,940 -2400,1400 -3990,1400 -3000,0 -4470,-1700 -4430,-5110z"/>
   <path class="fil0" d="M149700 92360l6980 0c110,-1380 -20,-2400 -380,-3080 -530,-990 -1320,-1480 -2380,-1480 -940,0 -1810,410 -2610,1230 -790,830 -1330,1930 -1610,3330zm6300 4350l2130 340c-620,1700 -1470,2980 -2560,3840 -1080,870 -2310,1290 -3720,1290 -1770,0 -3110,-690 -3990,-2090 -880,-1410 -1120,-3430 -720,-6070 420,-2740 1290,-4830 2610,-6270 1320,-1450 2840,-2210 4530,-2210 1620,0 2860,750 3720,2170 870,1420 1090,3460 690,6140l-120 720 -9340 0c-180,1790 10,3130 580,4040 570,910 1370,1360 2380,1360 1590,0 2860,-1080 3810,-3260z"/>
   <path class="fil0" d="M273080 93850c-780,410 -1890,740 -3350,1020 -840,160 -1450,350 -1810,550 -350,210 -650,490 -880,870 -230,370 -390,800 -450,1290 -110,760 10,1360 370,1820 340,450 890,680 1620,680 710,0 1370,-210 2000,-620 630,-400 1140,-950 1520,-1630 370,-680 660,-1680 840,-2990l140 -990zm-690 6020c-760,770 -1520,1340 -2290,1730 -760,390 -1530,580 -2290,580 -1210,0 -2110,-400 -2710,-1220 -610,-820 -810,-1920 -610,-3300 130,-920 410,-1730 840,-2440 440,-710 980,-1260 1620,-1660 640,-400 1570,-700 2790,-890 1630,-260 2840,-560 3640,-930l110 -680c150,-1090 80,-1850 -200,-2290 -390,-640 -1100,-960 -2110,-960 -910,0 -1630,210 -2140,640 -510,420 -960,1220 -1330,2390l-1880 -370c520,-1700 1250,-2940 2190,-3720 950,-770 2220,-1210 3780,-1210 1220,0 2120,300 2730,810 630,520 970,1150 1050,1910 70,760 10,1870 -200,3320l-500 3590c-360,2510 -540,4100 -540,4750 -10,650 130,1640 300,2260l-2070 0c-120,-550 -220,-1550 -180,-2310z"/>
   <path class="fil0" d="M194060 93880c-310,2060 -180,3590 380,4590 570,1000 1380,1500 2440,1500 1000,0 1930,-500 2800,-1520 860,-1010 1450,-2530 1760,-4570 310,-2040 180,-3560 -380,-4560 -570,-1010 -1380,-1510 -2440,-1510 -1010,0 -1940,510 -2800,1520 -860,1000 -1450,2520 -1760,4550zm-2170 0c420,-2740 1290,-4800 2610,-6200 1320,-1390 2830,-2140 4520,-2140 1660,0 2940,750 3850,2140 910,1400 1160,3410 760,6040 -430,2850 -1300,4980 -2620,6370 -1310,1400 -2820,2090 -4520,2090 -1670,0 -2960,-700 -3860,-2090 -910,-1410 -1150,-3480 -740,-6210z"/>
   <path class="fil0" d="M215360 93880c-310,2060 -180,3590 380,4590 570,1000 1380,1500 2440,1500 1000,0 1930,-500 2800,-1520 860,-1010 1450,-2530 1760,-4570 310,-2040 180,-3560 -380,-4560 -570,-1010 -1380,-1510 -2440,-1510 -1010,0 -1940,510 -2800,1520 -860,1000 -1450,2520 -1760,4550zm-2170 0c420,-2740 1290,-4800 2610,-6200 1320,-1400 2820,-2140 4520,-2140 1660,0 2940,750 3850,2140 910,1400 1160,3410 760,6040 -430,2850 -1300,4980 -2620,6370 -1310,1400 -2800,2090 -4500,2090 -1680,0 -2980,-690 -3880,-2090 -910,-1410 -1150,-3480 -740,-6210z"/>
   <polygon class="fil0" points="206380,102180 209630,80820 211690,80820 208430,102180 "/>
  </g>
 </g>
</svg>
